<svg width="400" height="512" viewBox="0 0 400 512" fill="none" xmlns="http://www.w3.org/2000/svg">
<path d="M360 32H279.999C279.992 32 279.986 32.001 279.979 32.001C272.674 22.292 261.059 16 248 16H227.61C221.966 6.242 211.481 0 200 0C188.519 0 178.034 6.242 172.39 16H152C138.941 16 127.326 22.292 120.021 32.001C120.014 32.001 120.007 32 120 32H40C17.944 32 0 49.944 0 72V472C0 494.056 17.944 512 40 512H360C382.056 512 400 494.056 400 472V72C400 49.944 382.056 32 360 32ZM128 56C128 42.767 138.767 32 152 32H177.47C180.855 32 183.874 29.869 185.008 26.68C187.278 20.292 193.303 16 200 16C206.697 16 212.722 20.292 214.992 26.68C216.126 29.869 219.145 32 222.53 32H248C261.233 32 272 42.767 272 56V80H128V56ZM384 472C384 485.233 373.233 496 360 496H40C26.767 496 16 485.233 16 472V72C16 58.767 26.767 48 40 48H112.805C112.278 50.586 112 53.261 112 56V88C112 92.418 115.582 96 120 96H280C284.418 96 288 92.418 288 88V56C288 53.261 287.722 50.586 287.195 48H360C373.233 48 384 58.767 384 72V472Z" fill="#FFDFBE" fill-opacity="0.23"/>
<path d="M360 64H312C307.582 64 304 67.582 304 72C304 76.418 307.582 80 312 80H352V464H48V80H88C92.418 80 96 76.418 96 72C96 67.582 92.418 64 88 64H40C35.582 64 32 67.582 32 72V472C32 476.418 35.582 480 40 480H360C364.418 480 368 476.418 368 472V72C368 67.582 364.418 64 360 64Z" fill="#FFDFBE" fill-opacity="0.23"/>
<path d="M200 32C197.89 32 195.83 32.85 194.34 34.34C192.85 35.83 192 37.89 192 40C192 42.1 192.85 44.17 194.34 45.66C195.83 47.15 197.89 48 200 48C202.1 48 204.17 47.15 205.66 45.66C207.15 44.17 208 42.11 208 40C208 37.89 207.15 35.83 205.66 34.34C204.17 32.849 202.1 32 200 32Z" fill="#FFDFBE" fill-opacity="0.23"/>
<path d="M74.343 186.343C71.218 189.467 71.218 194.532 74.343 197.656L98.343 221.656C99.905 223.218 101.952 223.999 104 223.999C106.048 223.999 108.095 223.218 109.657 221.656L149.657 181.656C152.782 178.532 152.782 173.467 149.657 170.343C146.533 167.219 141.468 167.219 138.344 170.343L104 204.686L85.657 186.343C82.533 183.219 77.467 183.219 74.343 186.343Z" fill="#FFDFBE" fill-opacity="0.23"/>
<path d="M149.657 258.343C146.533 255.219 141.468 255.219 138.344 258.343L104 292.686L85.657 274.343C82.533 271.219 77.468 271.219 74.344 274.343C71.219 277.467 71.219 282.532 74.344 285.656L98.344 309.656C99.906 311.218 101.953 311.999 104.001 311.999C106.049 311.999 108.096 311.218 109.658 309.656L149.658 269.656C152.781 266.533 152.781 261.467 149.657 258.343Z" fill="#FFDFBE" fill-opacity="0.23"/>
<path d="M138.343 346.343L104 380.686L85.657 362.343C82.533 359.219 77.468 359.219 74.344 362.343C71.219 365.467 71.219 370.532 74.344 373.656L98.344 397.656C99.906 399.218 101.953 399.999 104.001 399.999C106.049 399.999 108.096 399.218 109.658 397.656L149.658 357.656C152.783 354.532 152.783 349.467 149.658 346.343C146.533 343.219 141.467 343.219 138.343 346.343Z" fill="#FFDFBE" fill-opacity="0.23"/>
<path d="M184 200H320C324.418 200 328 196.418 328 192C328 187.582 324.418 184 320 184H184C179.582 184 176 187.582 176 192C176 196.418 179.582 200 184 200Z" fill="#FFDFBE" fill-opacity="0.23"/>
<path d="M184 288H320C324.418 288 328 284.418 328 280C328 275.582 324.418 272 320 272H184C179.582 272 176 275.582 176 280C176 284.418 179.582 288 184 288Z" fill="#FFDFBE" fill-opacity="0.23"/>
<path d="M184 376H320C324.418 376 328 372.418 328 368C328 363.582 324.418 360 320 360H184C179.582 360 176 363.582 176 368C176 372.418 179.582 376 184 376Z" fill="#FFDFBE" fill-opacity="0.23"/>
</svg>
